<svg width="180" height="101" viewBox="0 0 180 101" fill="none" xmlns="http://www.w3.org/2000/svg">
<g clip-path="url(#clip0_2627_66574)">
<path d="M116.009 48.3597H108.555V75.8674H116.009V48.3597Z" fill="#0B0B0B"/>
<path d="M68.0428 61.3693L78.9901 75.8674H70.005L62.8304 67.1274L54.8132 76.0469V48.3597H62.4091V57.6095L70.005 48.3597H79.3464L68.0428 61.3693Z" fill="#0B0B0B"/>
<path d="M160.58 61.3693L171.527 75.8674H162.542L155.368 67.1274L147.351 76.0469V48.3597H154.944V57.6095L162.542 48.3597H171.884L160.58 61.3693Z" fill="#0B0B0B"/>
<path d="M104.24 65.7985C104.248 67.0083 104.036 68.2095 103.617 69.3453C103.207 70.4405 102.615 71.4592 101.864 72.3583C101.107 73.2635 100.214 74.0466 99.2159 74.6798C98.1856 75.3321 97.069 75.8387 95.8982 76.1851C95.3731 76.3505 94.8374 76.4808 94.2948 76.5752C93.7525 76.6684 93.2032 76.7156 92.6528 76.7164C92.1089 76.7161 91.5659 76.6689 91.0301 76.5752C90.4934 76.4794 89.9634 76.3491 89.4436 76.1851C88.2724 75.8387 87.1557 75.3312 86.1259 74.6774C85.1279 74.044 84.2346 73.2609 83.4776 72.3559C82.7285 71.457 82.1383 70.4382 81.7321 69.3429C81.3108 68.2076 81.0987 67.0062 81.1061 65.7961V48.3519H88.8104V65.3438C88.8049 65.8405 88.9144 66.3318 89.1306 66.7797C89.3384 67.2096 89.6287 67.595 89.9853 67.9141C90.7227 68.5644 91.6743 68.9237 92.6601 68.9241C93.1659 68.9272 93.6679 68.8371 94.1407 68.6584C94.5935 68.4879 95.0106 68.2355 95.371 67.9141C95.7275 67.595 96.0179 67.2096 96.2257 66.7797C96.4426 66.332 96.5529 65.8407 96.5483 65.3438V48.3519H104.253L104.24 65.7985Z" fill="#0B0B0B"/>
<mask id="mask0_2627_66574" style="mask-type:luminance" maskUnits="userSpaceOnUse" x="4" y="36" width="9" height="12">
<path d="M12.1099 47.5053L12.1027 37.0637L4.36719 36.3529L12.1099 47.5053Z" fill="white"/>
</mask>
<g mask="url(#mask0_2627_66574)">
<path d="M10.6656 33.3599L-0.00390625 38.4301L5.80272 50.5042L16.4722 45.4341L10.6656 33.3599Z" fill="url(#paint0_linear_2627_66574)"/>
</g>
<mask id="mask1_2627_66574" style="mask-type:luminance" maskUnits="userSpaceOnUse" x="12" y="47" width="43" height="47">
<path d="M39.7824 93.1693L54.8129 76.0482L12.1025 47.5043L39.7824 93.1693Z" fill="white"/>
</mask>
<g mask="url(#mask1_2627_66574)">
<path d="M13.4534 40.0591L4.05664 91.7142L53.4581 100.594L62.8549 48.9391L13.4534 40.0591Z" fill="url(#paint1_linear_2627_66574)"/>
</g>
<mask id="mask2_2627_66574" style="mask-type:luminance" maskUnits="userSpaceOnUse" x="12" y="9" width="56" height="50">
<path d="M12.1047 47.5075L28.7964 58.6623L67.0046 9.97705L12.1047 47.5075Z" fill="white"/>
</mask>
<g mask="url(#mask2_2627_66574)">
<path d="M13.8402 0.414006L3.55786 56.937L65.2647 68.0289L75.547 11.5059L13.8402 0.414006Z" fill="url(#paint2_linear_2627_66574)"/>
</g>
<mask id="mask3_2627_66574" style="mask-type:luminance" maskUnits="userSpaceOnUse" x="108" y="48" width="9" height="8">
<path d="M108.555 48.3597L116.009 55.6567V48.3597H108.555Z" fill="white"/>
</mask>
<g mask="url(#mask3_2627_66574)">
<path d="M116.009 48.3597H108.555V55.6567H116.009V48.3597Z" fill="url(#paint3_linear_2627_66574)"/>
</g>
<path d="M133.517 76.7169C131.55 76.7327 129.6 76.3406 127.794 75.5657C126.058 74.8216 124.484 73.7505 123.157 72.4115C121.83 71.0715 120.769 69.4958 120.027 67.7662C119.272 65.9861 118.884 64.0739 118.884 62.1422C118.884 60.2104 119.272 58.2982 120.027 56.5181C120.769 54.7896 121.831 53.2148 123.157 51.8752C124.484 50.5362 126.058 49.4651 127.794 48.721C129.6 47.9453 131.549 47.5524 133.517 47.5674C135.349 47.5681 137.165 47.9157 138.867 48.5917C140.607 49.2843 142.212 50.274 143.609 51.5162L137.903 56.4894C136.644 55.5602 135.121 55.0516 133.553 55.0367C132.618 55.0273 131.691 55.2114 130.832 55.5772C129.972 55.9431 129.198 56.4827 128.56 57.1619C127.937 57.8303 127.442 58.6055 127.098 59.4498C126.742 60.3098 126.561 61.2313 126.564 62.1613C126.559 63.1031 126.74 64.0367 127.098 64.9087C127.44 65.7483 127.936 66.5176 128.56 67.1775C129.185 67.8303 129.93 68.3598 130.753 68.7379C131.62 69.131 132.564 69.3304 133.517 69.3218C134.63 69.3284 135.727 69.0603 136.709 68.5416C137.719 68.001 138.601 67.2519 139.295 66.3447L145.179 71.088C143.763 72.8377 141.98 74.2596 139.955 75.2546C137.952 76.2321 135.748 76.7351 133.517 76.7241" fill="#0B0B0B"/>
<path d="M173.198 45.2412H171.925V44.6429H175.177V45.2412H173.906V48.4529H173.184L173.198 45.2412Z" fill="#0B0B0B"/>
<path d="M179.27 48.4403V45.9154L178.011 48.0047H177.693L176.427 45.9585V48.4522H175.746V44.6302H176.333L177.855 47.1551L179.352 44.6302H179.937V48.4403H179.27Z" fill="#0B0B0B"/>
</g>
<path d="M95.4616 95.7612C94.426 95.7612 93.4336 95.6256 92.4843 95.3544C91.5351 95.0708 90.7707 94.7071 90.1913 94.2633L91.2084 92.0073C91.7631 92.4018 92.4165 92.7285 93.1686 92.9874C93.9329 93.2339 94.7034 93.3572 95.4801 93.3572C96.0719 93.3572 96.5465 93.3017 96.904 93.1908C97.2739 93.0675 97.5451 92.9011 97.7177 92.6915C97.8903 92.4819 97.9766 92.2415 97.9766 91.9703C97.9766 91.6251 97.841 91.3539 97.5698 91.1566C97.2985 90.947 96.941 90.7806 96.4972 90.6573C96.0534 90.5217 95.5602 90.3984 95.0178 90.2875C94.4877 90.1642 93.9514 90.0162 93.409 89.8436C92.8789 89.6711 92.3919 89.4491 91.9481 89.1779C91.5043 88.9067 91.1406 88.5492 90.857 88.1054C90.5858 87.6615 90.4502 87.0944 90.4502 86.4041C90.4502 85.6644 90.6474 84.9925 91.0419 84.3884C91.4488 83.772 92.0529 83.285 92.8542 82.9275C93.6679 82.5576 94.6849 82.3727 95.9054 82.3727C96.7191 82.3727 97.5204 82.4713 98.3095 82.6686C99.0985 82.8535 99.795 83.1371 100.399 83.5192L99.4745 85.7938C98.8704 85.4486 98.2663 85.1959 97.6622 85.0356C97.0581 84.863 96.4664 84.7767 95.8869 84.7767C95.3075 84.7767 94.8329 84.8445 94.463 84.9801C94.0932 85.1158 93.8281 85.2945 93.6679 85.5164C93.5076 85.726 93.4275 85.9726 93.4275 86.2561C93.4275 86.589 93.5631 86.8602 93.8343 87.0698C94.1055 87.267 94.463 87.4273 94.9069 87.5506C95.3507 87.6739 95.8376 87.7972 96.3678 87.9204C96.9102 88.0437 97.4465 88.1855 97.9766 88.3458C98.519 88.506 99.0122 88.7218 99.456 88.993C99.8998 89.2642 100.257 89.6217 100.529 90.0656C100.812 90.5094 100.954 91.0703 100.954 91.7484C100.954 92.4757 100.75 93.1415 100.344 93.7455C99.9368 94.3496 99.3265 94.8366 98.5129 95.2064C97.7115 95.5763 96.6945 95.7612 95.4616 95.7612ZM105.502 95.5393V85.0356H101.359V82.5946H112.64V85.0356H108.497V95.5393H105.502ZM119.786 95.7612C117.949 95.7612 116.513 95.2496 115.477 94.2263C114.442 93.2031 113.924 91.7422 113.924 89.8436V82.5946H116.92V89.7327C116.92 90.9655 117.172 91.8532 117.678 92.3956C118.183 92.938 118.892 93.2093 119.805 93.2093C120.717 93.2093 121.426 92.938 121.931 92.3956C122.437 91.8532 122.689 90.9655 122.689 89.7327V82.5946H125.648V89.8436C125.648 91.7422 125.13 93.2031 124.095 94.2263C123.059 95.2496 121.623 95.7612 119.786 95.7612ZM128.609 95.5393V82.5946H134.489C135.895 82.5946 137.134 82.8659 138.206 83.4083C139.279 83.9384 140.117 84.6843 140.721 85.6459C141.325 86.6075 141.627 87.7478 141.627 89.067C141.627 90.3738 141.325 91.5141 140.721 92.4881C140.117 93.4497 139.279 94.2017 138.206 94.7441C137.134 95.2742 135.895 95.5393 134.489 95.5393H128.609ZM131.604 93.0798H134.341C135.204 93.0798 135.95 92.9196 136.579 92.599C137.22 92.2662 137.713 91.7977 138.058 91.1936C138.416 90.5895 138.594 89.8806 138.594 89.067C138.594 88.241 138.416 87.5321 138.058 86.9403C137.713 86.3363 137.22 85.8739 136.579 85.5534C135.95 85.2205 135.204 85.0541 134.341 85.0541H131.604V93.0798ZM143.886 95.5393V82.5946H146.882V95.5393H143.886ZM156.242 95.7612C155.218 95.7612 154.269 95.5948 153.394 95.2619C152.531 94.9291 151.779 94.4606 151.138 93.8565C150.509 93.2524 150.016 92.5435 149.658 91.7299C149.313 90.9162 149.141 90.0286 149.141 89.067C149.141 88.1054 149.313 87.2177 149.658 86.4041C150.016 85.5904 150.515 84.8815 151.156 84.2774C151.797 83.6734 152.549 83.2049 153.412 82.872C154.275 82.5392 155.212 82.3727 156.223 82.3727C157.246 82.3727 158.183 82.5392 159.034 82.872C159.897 83.2049 160.643 83.6734 161.272 84.2774C161.913 84.8815 162.412 85.5904 162.769 86.4041C163.127 87.2054 163.306 88.093 163.306 89.067C163.306 90.0286 163.127 90.9224 162.769 91.7484C162.412 92.562 161.913 93.2709 161.272 93.875C160.643 94.4667 159.897 94.9291 159.034 95.2619C158.183 95.5948 157.253 95.7612 156.242 95.7612ZM156.223 93.2093C156.803 93.2093 157.333 93.1106 157.814 92.9134C158.307 92.7161 158.738 92.4326 159.108 92.0627C159.478 91.6929 159.761 91.2552 159.959 90.7498C160.168 90.2443 160.273 89.6834 160.273 89.067C160.273 88.4506 160.168 87.8896 159.959 87.3842C159.761 86.8787 159.478 86.441 159.108 86.0712C158.75 85.7014 158.325 85.4178 157.832 85.2205C157.339 85.0233 156.803 84.9247 156.223 84.9247C155.644 84.9247 155.107 85.0233 154.614 85.2205C154.134 85.4178 153.708 85.7014 153.338 86.0712C152.968 86.441 152.679 86.8787 152.469 87.3842C152.272 87.8896 152.173 88.4506 152.173 89.067C152.173 89.6711 152.272 90.232 152.469 90.7498C152.679 91.2552 152.962 91.6929 153.32 92.0627C153.69 92.4326 154.121 92.7161 154.614 92.9134C155.107 93.1106 155.644 93.2093 156.223 93.2093Z" fill="#0B0B0B"/>
<defs>
<linearGradient id="paint0_linear_2627_66574" x1="4.58875" y1="36.2716" x2="10.3224" y2="48.3375" gradientUnits="userSpaceOnUse">
<stop stop-color="#EB205E"/>
<stop offset="0.32" stop-color="#EE424C"/>
<stop offset="1" stop-color="#F69322"/>
</linearGradient>
<linearGradient id="paint1_linear_2627_66574" x1="8.91163" y1="65.3529" x2="55.1457" y2="73.7635" gradientUnits="userSpaceOnUse">
<stop stop-color="#EB205E"/>
<stop offset="0.32" stop-color="#EE424C"/>
<stop offset="1" stop-color="#F69322"/>
</linearGradient>
<linearGradient id="paint2_linear_2627_66574" x1="45.319" y1="5.91767" x2="35.6452" y2="59.7351" gradientUnits="userSpaceOnUse">
<stop stop-color="#EB205E"/>
<stop offset="0.32" stop-color="#EE424C"/>
<stop offset="1" stop-color="#F69322"/>
</linearGradient>
<linearGradient id="paint3_linear_2627_66574" x1="108.516" y1="50.672" x2="115.996" y2="50.672" gradientUnits="userSpaceOnUse">
<stop stop-color="#EB205E"/>
<stop offset="0.32" stop-color="#EE424C"/>
<stop offset="1" stop-color="#F69322"/>
</linearGradient>
<clipPath id="clip0_2627_66574">
<rect width="179.942" height="100.187" fill="white" transform="translate(0 0.418335)"/>
</clipPath>
</defs>
</svg>
