<svg width="188" height="92" viewBox="0 0 188 92" fill="none" xmlns="http://www.w3.org/2000/svg">
<path d="M65.9053 49.927L77.1926 64.1248H67.9284L60.53 55.5671L52.2681 64.3024V37.188H60.0982V46.2494L67.9284 37.188H77.5596L65.9053 49.927Z" fill="black"/>
<path d="M162.859 49.927L174.145 64.1248H164.882L157.484 55.5671L149.22 64.3024V37.188H157.05V46.2494L164.882 37.188H174.512L162.859 49.927Z" fill="black"/>
<path d="M103.695 54.3426C103.703 55.5309 103.48 56.7108 103.038 57.8262C102.613 58.904 101.994 59.9077 101.208 60.795C100.405 61.6864 99.4569 62.457 98.3984 63.0793C97.3079 63.7197 96.1261 64.2159 94.8873 64.5535C94.3317 64.7169 93.7647 64.8449 93.1902 64.9367C92.6184 65.0299 92.0389 65.0769 91.4583 65.0771C90.884 65.0773 90.3108 65.0303 89.7455 64.9367C89.1754 64.8438 88.6127 64.7158 88.061 64.5535C86.8261 64.2188 85.6476 63.7266 84.5594 63.0911C83.5009 62.4687 82.5531 61.6981 81.7499 60.8067C80.957 59.9169 80.333 58.9091 79.9043 57.8262C79.4609 56.7089 79.2383 55.527 79.2469 54.3368V37.188H87.3847V53.8922C87.3784 54.38 87.4941 54.8625 87.7229 55.302C87.9426 55.7254 88.2496 56.105 88.6267 56.4193C89.0068 56.7357 89.4473 56.9837 89.9256 57.1505C90.4123 57.3255 90.9299 57.4147 91.452 57.4138C91.9866 57.4169 92.5172 57.3276 93.0164 57.1505C93.4947 56.9837 93.9352 56.7357 94.3153 56.4193C94.6933 56.1057 95.0004 55.726 95.2191 55.302C95.4488 54.8627 95.5656 54.3802 95.5604 53.8922V37.188H103.695V54.3426Z" fill="black"/>
<path d="M116.342 37.188H108.755V64.3024H116.342V37.188Z" fill="black"/>
<path d="M134.72 65.0633C132.7 65.0784 130.7 64.6931 128.845 63.9317C127.063 63.2004 125.446 62.1469 124.085 60.8294C122.728 59.5104 121.642 57.9614 120.882 56.2623C120.11 54.5132 119.713 52.6349 119.713 50.7376C119.713 48.8402 120.11 46.9619 120.882 45.2128C121.643 43.5141 122.729 41.9652 124.085 40.6457C125.447 39.33 127.064 38.2776 128.845 37.5463C130.699 36.7826 132.7 36.3962 134.72 36.4118C136.601 36.4073 138.466 36.7447 140.214 37.406C142 38.0853 143.648 39.0581 145.081 40.2802L139.225 45.1602C137.932 44.2465 136.367 43.747 134.757 43.7333C133.797 43.7225 132.845 43.9027 131.963 44.2622C131.08 44.6216 130.286 45.1526 129.631 45.821C128.994 46.4783 128.486 47.24 128.133 48.0695C127.4 49.7899 127.4 51.7145 128.133 53.4349C128.482 54.2608 128.991 55.0173 129.631 55.6658C130.272 56.3104 131.038 56.8316 131.885 57.2009C132.773 57.5923 133.741 57.792 134.72 57.7856C135.862 57.7921 136.988 57.5278 137.997 57.0167C139.035 56.4865 139.941 55.7495 140.653 54.8559L146.69 59.5341C145.239 61.2554 143.408 62.6527 141.328 63.6276C139.273 64.5908 137.011 65.0863 134.72 65.075" fill="black"/>
<mask id="mask0_2627_69614" style="mask-type:luminance" maskUnits="userSpaceOnUse" x="108" y="37" width="9" height="8">
<path d="M108.612 37.1738L116.38 44.2435V37.1738H108.612Z" fill="white"/>
</mask>
<g mask="url(#mask0_2627_69614)">
<path d="M116.38 37.1738H108.609V44.2406H116.38V37.1738Z" fill="url(#paint0_linear_2627_69614)"/>
</g>
<mask id="mask1_2627_69614" style="mask-type:luminance" maskUnits="userSpaceOnUse" x="-1" y="25" width="10" height="12">
<path d="M8.07316 36.3482L8.06692 26.2346L-0.000244141 25.5464L8.07316 36.3482Z" fill="white"/>
</mask>
<g mask="url(#mask1_2627_69614)">
<path d="M6.5695 22.6491L-4.55469 27.5601L1.49888 39.2541L12.6231 34.3432L6.5695 22.6491Z" fill="url(#paint1_linear_2627_69614)"/>
</g>
<mask id="mask2_2627_69614" style="mask-type:luminance" maskUnits="userSpaceOnUse" x="8" y="36" width="45" height="45">
<path d="M36.921 80.5674L52.5875 63.9861L8.06689 36.3438L36.921 80.5674Z" fill="white"/>
</mask>
<g mask="url(#mask2_2627_69614)">
<path d="M9.47547 29.1478L-0.320557 79.1748L51.1794 87.7748L60.9754 37.7478L9.47547 29.1478Z" fill="url(#paint2_linear_2627_69614)"/>
</g>
<mask id="mask3_2627_69614" style="mask-type:luminance" maskUnits="userSpaceOnUse" x="8" y="0" width="58" height="47">
<path d="M8.06519 36.3477L25.4905 46.9738L65.2962 0L8.06519 36.3477Z" fill="white"/>
</mask>
<g mask="url(#mask3_2627_69614)">
<path d="M9.8753 -9.25345L-0.843506 45.4861L63.4831 56.2281L74.202 1.48852L9.8753 -9.25345Z" fill="url(#paint3_linear_2627_69614)"/>
</g>
<path d="M175.974 31.1887H173.667V30.2148H179.569V31.1887H177.265V36.4124H175.974V31.1887Z" fill="white"/>
<path d="M186.779 36.4124V32.3048L184.484 35.7122H183.91L181.615 32.3585V36.4124H180.412V30.2148H181.474L184.232 34.3224L186.938 30.2148H188V36.4124H186.779Z" fill="white"/>
<path d="M108.653 72.0867H105.492C105.434 71.6777 105.316 71.3145 105.138 70.9969C104.96 70.6745 104.732 70.4003 104.453 70.1741C104.173 69.948 103.851 69.7747 103.485 69.6544C103.125 69.5342 102.732 69.474 102.309 69.474C101.544 69.474 100.877 69.6641 100.31 70.0442C99.7419 70.4195 99.3017 70.968 98.9889 71.6898C98.6762 72.4067 98.5198 73.2776 98.5198 74.3025C98.5198 75.3562 98.6762 76.2416 98.9889 76.9585C99.3065 77.6755 99.7492 78.2168 100.317 78.5825C100.885 78.9481 101.542 79.131 102.287 79.131C102.706 79.131 103.093 79.0757 103.449 78.965C103.81 78.8543 104.13 78.6931 104.409 78.4814C104.688 78.2649 104.919 78.0027 105.102 77.6947C105.29 77.3868 105.42 77.0355 105.492 76.641L108.653 76.6554C108.571 77.3338 108.367 77.9882 108.04 78.6185C107.717 79.2441 107.282 79.8046 106.733 80.3002C106.19 80.791 105.54 81.1807 104.785 81.4694C104.034 81.7533 103.185 81.8953 102.237 81.8953C100.918 81.8953 99.7395 81.597 98.7002 81.0003C97.6657 80.4037 96.8477 79.54 96.2463 78.4092C95.6496 77.2785 95.3513 75.9096 95.3513 74.3025C95.3513 72.6906 95.6545 71.3193 96.2607 70.1885C96.867 69.0578 97.6898 68.1965 98.7291 67.6047C99.7684 67.008 100.938 66.7097 102.237 66.7097C103.093 66.7097 103.887 66.83 104.619 67.0706C105.355 67.3112 106.007 67.6624 106.574 68.1243C107.142 68.5814 107.604 69.142 107.96 69.806C108.321 70.47 108.552 71.2303 108.653 72.0867Z" fill="black"/>
<path d="M115.845 81.9097C114.724 81.9097 113.755 81.6715 112.937 81.1952C112.124 80.714 111.496 80.0452 111.053 79.1887C110.61 78.3274 110.389 77.329 110.389 76.1935C110.389 75.0483 110.61 74.0475 111.053 73.191C111.496 72.3297 112.124 71.6609 112.937 71.1845C113.755 70.7034 114.724 70.4628 115.845 70.4628C116.966 70.4628 117.934 70.7034 118.747 71.1845C119.565 71.6609 120.195 72.3297 120.638 73.191C121.08 74.0475 121.302 75.0483 121.302 76.1935C121.302 77.329 121.08 78.3274 120.638 79.1887C120.195 80.0452 119.565 80.714 118.747 81.1952C117.934 81.6715 116.966 81.9097 115.845 81.9097ZM115.86 79.5279C116.37 79.5279 116.796 79.3836 117.137 79.0949C117.479 78.8014 117.736 78.402 117.91 77.8968C118.088 77.3916 118.177 76.8166 118.177 76.1718C118.177 75.5271 118.088 74.9521 117.91 74.4468C117.736 73.9416 117.479 73.5423 117.137 73.2487C116.796 72.9552 116.37 72.8085 115.86 72.8085C115.345 72.8085 114.912 72.9552 114.561 73.2487C114.214 73.5423 113.952 73.9416 113.774 74.4468C113.601 74.9521 113.514 75.5271 113.514 76.1718C113.514 76.8166 113.601 77.3916 113.774 77.8968C113.952 78.402 114.214 78.8014 114.561 79.0949C114.912 79.3836 115.345 79.5279 115.86 79.5279Z" fill="black"/>
<path d="M126.376 75.2841V81.6932H123.301V70.6072H126.231V72.5631H126.361C126.607 71.9183 127.018 71.4083 127.595 71.033C128.173 70.6529 128.873 70.4628 129.696 70.4628C130.466 70.4628 131.137 70.6312 131.709 70.968C132.282 71.3048 132.727 71.786 133.045 72.4115C133.362 73.0322 133.521 73.7732 133.521 74.6345V81.6932H130.446V75.183C130.451 74.5046 130.278 73.9753 129.927 73.5952C129.575 73.2103 129.092 73.0178 128.476 73.0178C128.062 73.0178 127.696 73.1068 127.379 73.2848C127.066 73.4629 126.821 73.7227 126.643 74.0643C126.469 74.4011 126.38 74.8077 126.376 75.2841Z" fill="black"/>
<path d="M139.019 75.2841V81.6932H135.944V70.6072H138.874V72.5631H139.004C139.25 71.9183 139.661 71.4083 140.239 71.033C140.816 70.6529 141.516 70.4628 142.339 70.4628C143.109 70.4628 143.78 70.6312 144.353 70.968C144.925 71.3048 145.37 71.786 145.688 72.4115C146.005 73.0322 146.164 73.7732 146.164 74.6345V81.6932H143.089V75.183C143.094 74.5046 142.921 73.9753 142.57 73.5952C142.219 73.2103 141.735 73.0178 141.119 73.0178C140.705 73.0178 140.34 73.1068 140.022 73.2848C139.709 73.4629 139.464 73.7227 139.286 74.0643C139.113 74.4011 139.024 74.8077 139.019 75.2841Z" fill="black"/>
<path d="M153.64 81.9097C152.499 81.9097 151.518 81.6788 150.695 81.2168C149.877 80.7501 149.247 80.0909 148.804 79.2392C148.361 78.3828 148.14 77.3699 148.14 76.2007C148.14 75.0603 148.361 74.0595 148.804 73.1982C149.247 72.3369 149.87 71.6657 150.673 71.1845C151.482 70.7034 152.429 70.4628 153.517 70.4628C154.248 70.4628 154.929 70.5807 155.559 70.8165C156.195 71.0474 156.748 71.3963 157.219 71.863C157.696 72.3297 158.066 72.9167 158.331 73.6241C158.596 74.3266 158.728 75.1493 158.728 76.0924V76.9369H149.367V75.0315H155.834C155.834 74.5888 155.737 74.1966 155.545 73.855C155.353 73.5134 155.086 73.2463 154.744 73.0539C154.407 72.8566 154.015 72.758 153.567 72.758C153.101 72.758 152.687 72.8662 152.326 73.0827C151.97 73.2945 151.691 73.5807 151.489 73.9416C151.287 74.2977 151.183 74.6946 151.178 75.1325V76.9441C151.178 77.4926 151.28 77.9666 151.482 78.3659C151.688 78.7653 151.98 79.0732 152.355 79.2898C152.73 79.5063 153.175 79.6146 153.69 79.6146C154.032 79.6146 154.345 79.5664 154.628 79.4702C154.912 79.374 155.155 79.2296 155.357 79.0372C155.559 78.8447 155.713 78.6089 155.819 78.3298L158.663 78.5175C158.519 79.2008 158.223 79.7974 157.775 80.3074C157.333 80.8127 156.76 81.2072 156.057 81.4911C155.36 81.7702 154.554 81.9097 153.64 81.9097Z" fill="black"/>
<path d="M165.743 81.9097C164.608 81.9097 163.631 81.6691 162.813 81.188C162 80.702 161.374 80.0284 160.936 79.1671C160.503 78.3058 160.287 77.3146 160.287 76.1935C160.287 75.0579 160.506 74.0619 160.944 73.2054C161.386 72.3442 162.014 71.6729 162.827 71.1918C163.641 70.7058 164.608 70.4628 165.729 70.4628C166.696 70.4628 167.543 70.6384 168.269 70.9897C168.996 71.3409 169.571 71.8341 169.994 72.4693C170.418 73.1044 170.651 73.8502 170.694 74.7067H167.793C167.711 74.1533 167.495 73.7083 167.144 73.3714C166.797 73.0298 166.342 72.859 165.779 72.859C165.303 72.859 164.887 72.9889 164.531 73.2487C164.18 73.5038 163.905 73.8767 163.708 74.3675C163.511 74.8582 163.412 75.4525 163.412 76.1502C163.412 76.8575 163.508 77.4589 163.701 77.9545C163.898 78.4501 164.175 78.8279 164.531 79.0877C164.887 79.3475 165.303 79.4774 165.779 79.4774C166.131 79.4774 166.446 79.4053 166.725 79.2609C167.009 79.1166 167.242 78.9072 167.425 78.633C167.613 78.3539 167.735 78.0195 167.793 77.6298H170.694C170.646 78.4766 170.415 79.2224 170.002 79.8672C169.593 80.5071 169.027 81.0075 168.306 81.3684C167.584 81.7293 166.73 81.9097 165.743 81.9097Z" fill="black"/>
<path d="M178.56 70.6072V72.9167H171.884V70.6072H178.56ZM173.399 67.9511H176.474V78.2865C176.474 78.5704 176.517 78.7918 176.604 78.9505C176.69 79.1045 176.811 79.2128 176.965 79.2753C177.123 79.3379 177.306 79.3692 177.513 79.3692C177.658 79.3692 177.802 79.3571 177.946 79.3331C178.091 79.3042 178.201 79.2826 178.278 79.2681L178.762 81.5561C178.608 81.6042 178.391 81.6595 178.112 81.7221C177.833 81.7894 177.494 81.8303 177.095 81.8448C176.354 81.8736 175.704 81.775 175.146 81.5488C174.593 81.3227 174.162 80.9714 173.854 80.4951C173.546 80.0187 173.394 79.4173 173.399 78.6907V67.9511Z" fill="black"/>
<defs>
<linearGradient id="paint0_linear_2627_69614" x1="107.994" y1="39.9622" x2="115.732" y2="39.9622" gradientUnits="userSpaceOnUse">
<stop stop-color="#E9205E"/>
<stop offset="0.33" stop-color="#EC424C"/>
<stop offset="1" stop-color="#F49123"/>
</linearGradient>
<linearGradient id="paint1_linear_2627_69614" x1="1.00741" y1="25.1046" x2="6.31524" y2="37.1279" gradientUnits="userSpaceOnUse">
<stop stop-color="#EB3652"/>
<stop offset="1" stop-color="#F49123"/>
</linearGradient>
<linearGradient id="paint2_linear_2627_69614" x1="35.2255" y1="33.4478" x2="26.8323" y2="83.7091" gradientUnits="userSpaceOnUse">
<stop stop-color="#EA2D57"/>
<stop offset="1" stop-color="#F2812B"/>
</linearGradient>
<linearGradient id="paint3_linear_2627_69614" x1="42.5216" y1="-4.15497" x2="33.7786" y2="48.201" gradientUnits="userSpaceOnUse">
<stop stop-color="#E9205E"/>
<stop offset="0.33" stop-color="#EC424C"/>
<stop offset="1" stop-color="#F49123"/>
</linearGradient>
</defs>
</svg>
