<svg width="180" height="101" viewBox="0 0 180 101" fill="none" xmlns="http://www.w3.org/2000/svg">
<path d="M116.046 47.957H108.59V75.4736H116.046V47.957Z" fill="#0B0B0B"/>
<path d="M68.0652 60.9708L79.0159 75.4736H70.028L62.8511 66.7307L54.8313 75.6531V47.957H62.4296V57.2098L70.028 47.957H79.3724L68.0652 60.9708Z" fill="#0B0B0B"/>
<path d="M160.633 60.9708L171.583 75.4736H162.595L155.418 66.7307L147.399 75.6531V47.957H154.995V57.2098L162.595 47.957H171.94L160.633 60.9708Z" fill="#0B0B0B"/>
<path d="M104.274 65.4014C104.281 66.6116 104.07 67.8132 103.651 68.9493C103.241 70.0449 102.648 71.064 101.897 71.9634C101.14 72.8688 100.247 73.6522 99.2481 74.2856C98.2175 74.9381 97.1006 75.4449 95.9294 75.7914C95.4041 75.9568 94.8682 76.0872 94.3254 76.1816C93.783 76.2748 93.2335 76.3221 92.6829 76.3228C92.1388 76.3226 91.5957 76.2753 91.0597 76.1816C90.5228 76.0858 89.9926 75.9554 89.4726 75.7914C88.3011 75.4448 87.184 74.9372 86.1539 74.2832C85.1556 73.6496 84.262 72.8663 83.5047 71.961C82.7554 71.0617 82.165 70.0426 81.7587 68.9469C81.3372 67.8113 81.1251 66.6095 81.1325 65.399V47.9492H88.8392V64.9466C88.8337 65.4435 88.9433 65.9349 89.1595 66.383C89.3674 66.813 89.6578 67.1985 90.0145 67.5177C90.7522 68.1683 91.704 68.5277 92.6902 68.528C93.1962 68.5312 93.6984 68.4411 94.1713 68.2623C94.6242 68.0917 95.0415 67.8392 95.402 67.5177C95.7586 67.1985 96.0491 66.813 96.2569 66.383C96.4739 65.9351 96.5843 65.4436 96.5797 64.9466V47.9492H104.286L104.274 65.4014Z" fill="#0B0B0B"/>
<mask id="mask0_3208_42819" style="mask-type:luminance" maskUnits="userSpaceOnUse" x="4" y="35" width="9" height="13">
<path d="M12.1144 47.1013L12.1072 36.6563L4.36914 35.9453L12.1144 47.1013Z" fill="white"/>
</mask>
<g mask="url(#mask0_3208_42819)">
<path d="M10.67 32.9517L-0.00292969 38.0234L5.80558 50.1015L16.4785 45.0297L10.67 32.9517Z" fill="url(#paint0_linear_3208_42819)"/>
</g>
<mask id="mask1_3208_42819" style="mask-type:luminance" maskUnits="userSpaceOnUse" x="12" y="47" width="43" height="46">
<path d="M39.7955 92.7814L54.8308 75.6547L12.1067 47.1016L39.7955 92.7814Z" fill="white"/>
</mask>
<g mask="url(#mask1_3208_42819)">
<path d="M13.4577 39.6543L4.05786 91.3262L53.4753 100.209L62.8751 48.5372L13.4577 39.6543Z" fill="url(#paint1_linear_3208_42819)"/>
</g>
<mask id="mask2_3208_42819" style="mask-type:luminance" maskUnits="userSpaceOnUse" x="12" y="9" width="56" height="50">
<path d="M12.1094 47.1041L28.8065 58.2625L67.0269 9.56152L12.1094 47.1041Z" fill="white"/>
</mask>
<g mask="url(#mask2_3208_42819)">
<path d="M13.8462 -0.00488038L3.56055 56.5364L65.2873 67.6319L75.5729 11.0906L13.8462 -0.00488038Z" fill="url(#paint2_linear_3208_42819)"/>
</g>
<mask id="mask3_3208_42819" style="mask-type:luminance" maskUnits="userSpaceOnUse" x="108" y="47" width="9" height="9">
<path d="M108.59 47.957L116.046 55.2563V47.957H108.59Z" fill="white"/>
</mask>
<g mask="url(#mask3_3208_42819)">
<path d="M116.046 47.957H108.59V55.2563H116.046V47.957Z" fill="url(#paint3_linear_3208_42819)"/>
</g>
<path d="M133.56 76.3233C131.592 76.3392 129.642 75.947 127.835 75.1718C126.099 74.4275 124.523 73.356 123.197 72.0165C121.87 70.6761 120.807 69.0999 120.066 67.3698C119.311 65.5891 118.922 63.6763 118.922 61.7439C118.922 59.8115 119.311 57.8987 120.066 56.118C120.808 54.389 121.87 52.8137 123.197 51.4737C124.523 50.1342 126.099 49.0627 127.835 48.3184C129.642 47.5425 131.592 47.1495 133.56 47.1645C135.393 47.1651 137.209 47.5129 138.911 48.1891C140.652 48.8819 142.258 49.872 143.656 51.1146L137.948 56.0893C136.688 55.1598 135.165 54.651 133.596 54.6361C132.66 54.6267 131.733 54.8109 130.873 55.1769C130.014 55.5428 129.24 56.0827 128.601 56.762C127.978 57.4307 127.483 58.2061 127.139 59.0507C126.783 59.911 126.601 60.8328 126.604 61.7631C126.599 62.7052 126.781 63.6391 127.139 64.5114C127.481 65.3512 127.977 66.1208 128.601 66.7809C129.227 67.4339 129.971 67.9635 130.795 68.3418C131.662 68.735 132.606 68.9344 133.56 68.9259C134.673 68.9325 135.77 68.6643 136.753 68.1454C137.763 67.6047 138.645 66.8553 139.34 65.9478L145.226 70.6927C143.809 72.443 142.026 73.8653 140 74.8606C137.996 75.8384 135.792 76.3415 133.56 76.3305" fill="#0B0B0B"/>
<path d="M173.254 44.8368H171.98V44.2383H175.234V44.8368H173.962V48.0495H173.24L173.254 44.8368Z" fill="#0B0B0B"/>
<path d="M179.328 48.0378V45.5121L178.069 47.6021H177.751L176.484 45.5552V48.0498H175.802V44.2266H176.39L177.912 46.7522L179.41 44.2266H179.995V48.0378H179.328Z" fill="#0B0B0B"/>
<path d="M121.221 88.1672H127.436V90.572H121.221V88.1672ZM121.443 95.2891H118.446V82.3402H128.232V84.745H121.443V95.2891ZM136.423 95.511C135.4 95.511 134.45 95.3446 133.575 95.0116C132.711 94.6786 131.959 94.21 131.318 93.6057C130.689 93.0014 130.195 92.2923 129.838 91.4784C129.493 90.6645 129.32 89.7765 129.32 88.8146C129.32 87.8527 129.493 86.9648 129.838 86.1509C130.195 85.3369 130.695 84.6278 131.336 84.0236C131.977 83.4193 132.73 82.9507 133.593 82.6177C134.456 82.2847 135.394 82.1182 136.405 82.1182C137.428 82.1182 138.366 82.2847 139.217 82.6177C140.08 82.9507 140.826 83.4193 141.455 84.0236C142.096 84.6278 142.596 85.3369 142.953 86.1509C143.311 86.9525 143.49 87.8404 143.49 88.8146C143.49 89.7765 143.311 90.6706 142.953 91.4969C142.596 92.3108 142.096 93.0199 141.455 93.6242C140.826 94.2162 140.08 94.6786 139.217 95.0116C138.366 95.3446 137.435 95.511 136.423 95.511ZM136.405 92.9583C136.984 92.9583 137.515 92.8596 137.996 92.6623C138.489 92.465 138.921 92.1813 139.291 91.8114C139.66 91.4414 139.944 91.0036 140.141 90.498C140.351 89.9924 140.456 89.4312 140.456 88.8146C140.456 88.198 140.351 87.6369 140.141 87.1313C139.944 86.6257 139.66 86.1879 139.291 85.8179C138.933 85.4479 138.507 85.1643 138.014 84.967C137.521 84.7697 136.984 84.671 136.405 84.671C135.825 84.671 135.289 84.7697 134.795 84.967C134.314 85.1643 133.889 85.4479 133.519 85.8179C133.149 86.1879 132.859 86.6257 132.65 87.1313C132.452 87.6369 132.354 88.198 132.354 88.8146C132.354 89.4189 132.452 89.98 132.65 90.498C132.859 91.0036 133.143 91.4414 133.501 91.8114C133.87 92.1813 134.302 92.465 134.795 92.6623C135.289 92.8596 135.825 92.9583 136.405 92.9583ZM152.031 95.511C151.008 95.511 150.058 95.3446 149.183 95.0116C148.319 94.6786 147.567 94.21 146.926 93.6057C146.297 93.0014 145.803 92.2923 145.446 91.4784C145.101 90.6645 144.928 89.7765 144.928 88.8146C144.928 87.8527 145.101 86.9648 145.446 86.1509C145.803 85.3369 146.303 84.6278 146.944 84.0236C147.585 83.4193 148.338 82.9507 149.201 82.6177C150.064 82.2847 151.002 82.1182 152.013 82.1182C153.036 82.1182 153.974 82.2847 154.825 82.6177C155.688 82.9507 156.434 83.4193 157.063 84.0236C157.704 84.6278 158.204 85.3369 158.561 86.1509C158.919 86.9525 159.098 87.8404 159.098 88.8146C159.098 89.7765 158.919 90.6706 158.561 91.4969C158.204 92.3108 157.704 93.0199 157.063 93.6242C156.434 94.2162 155.688 94.6786 154.825 95.0116C153.974 95.3446 153.043 95.511 152.031 95.511ZM152.013 92.9583C152.592 92.9583 153.123 92.8596 153.604 92.6623C154.097 92.465 154.529 92.1813 154.899 91.8114C155.268 91.4414 155.552 91.0036 155.749 90.498C155.959 89.9924 156.064 89.4312 156.064 88.8146C156.064 88.198 155.959 87.6369 155.749 87.1313C155.552 86.6257 155.268 86.1879 154.899 85.8179C154.541 85.4479 154.115 85.1643 153.622 84.967C153.129 84.7697 152.592 84.671 152.013 84.671C151.433 84.671 150.897 84.7697 150.403 84.967C149.922 85.1643 149.497 85.4479 149.127 85.8179C148.757 86.1879 148.467 86.6257 148.258 87.1313C148.06 87.6369 147.962 88.198 147.962 88.8146C147.962 89.4189 148.06 89.98 148.258 90.498C148.467 91.0036 148.751 91.4414 149.109 91.8114C149.478 92.1813 149.91 92.465 150.403 92.6623C150.897 92.8596 151.433 92.9583 152.013 92.9583ZM161.35 95.2891V82.3402H167.232C168.638 82.3402 169.878 82.6115 170.95 83.1541C172.023 83.6844 172.862 84.4305 173.466 85.3924C174.071 86.3544 174.373 87.4951 174.373 88.8146C174.373 90.1219 174.071 91.2626 173.466 92.2368C172.862 93.1987 172.023 93.951 170.95 94.4936C169.878 95.0239 168.638 95.2891 167.232 95.2891H161.35ZM164.347 92.8288H167.084C167.948 92.8288 168.694 92.6685 169.323 92.3478C169.964 92.0149 170.457 91.5462 170.802 90.9419C171.16 90.3377 171.339 89.6286 171.339 88.8146C171.339 87.9884 171.16 87.2793 170.802 86.6873C170.457 86.083 169.964 85.6206 169.323 85.2999C168.694 84.967 167.948 84.8005 167.084 84.8005H164.347V92.8288Z" fill="#0B0B0B"/>
<defs>
<linearGradient id="paint0_linear_3208_42819" x1="4.59121" y1="35.8643" x2="10.3267" y2="47.9341" gradientUnits="userSpaceOnUse">
<stop stop-color="#EB205E"/>
<stop offset="0.32" stop-color="#EE424C"/>
<stop offset="1" stop-color="#F69322"/>
</linearGradient>
<linearGradient id="paint1_linear_3208_42819" x1="8.91442" y1="64.9563" x2="55.1634" y2="73.3697" gradientUnits="userSpaceOnUse">
<stop stop-color="#EB205E"/>
<stop offset="0.32" stop-color="#EE424C"/>
<stop offset="1" stop-color="#F69322"/>
</linearGradient>
<linearGradient id="paint2_linear_3208_42819" x1="45.3351" y1="5.50056" x2="35.6582" y2="59.3353" gradientUnits="userSpaceOnUse">
<stop stop-color="#EB205E"/>
<stop offset="0.32" stop-color="#EE424C"/>
<stop offset="1" stop-color="#F69322"/>
</linearGradient>
<linearGradient id="paint3_linear_3208_42819" x1="108.551" y1="50.2701" x2="116.033" y2="50.2701" gradientUnits="userSpaceOnUse">
<stop stop-color="#EB205E"/>
<stop offset="0.32" stop-color="#EE424C"/>
<stop offset="1" stop-color="#F69322"/>
</linearGradient>
</defs>
</svg>
